<svg width="32" height="32" viewBox="0 0 32 32" fill="none" xmlns="http://www.w3.org/2000/svg">
<path d="M26.5566 10.4516H20.0116V8.85802H26.5566V10.4516V10.4516ZM15.6649 16.6415C16.1556 17.3629 16.3954 18.2238 16.3954 19.234C16.3954 20.0527 16.2386 20.7576 15.9257 21.3508C15.6091 21.9502 15.1786 22.4379 14.6479 22.8125C14.1134 23.1911 13.4991 23.4691 12.8116 23.6495C12.1308 23.8303 11.4245 23.9214 10.7015 23.9214H2.875V7.77539H10.4874C11.2601 7.77539 11.9567 7.84252 12.5937 7.98045C13.2277 8.11458 13.7682 8.33852 14.225 8.64608C14.6743 8.95364 15.0264 9.36227 15.2789 9.87864C15.5247 10.3845 15.6483 11.0207 15.6483 11.7724C15.6483 12.585 15.4636 13.2634 15.0949 13.8071C14.7233 14.3483 14.1768 14.793 13.4471 15.1391C14.4414 15.4241 15.1772 15.9269 15.6649 16.6415ZM6.43019 14.2985H10.0276C10.6578 14.2985 11.1795 14.15 11.5926 13.8455C12.0012 13.5476 12.1995 13.054 12.1995 12.3777C12.1995 12.0015 12.1339 11.691 12.0013 11.4505C11.8641 11.21 11.6824 11.0208 11.4532 10.8889C11.2256 10.7516 10.9693 10.6566 10.6707 10.6055C10.3781 10.5481 10.0706 10.5263 9.75625 10.5263H6.43025V14.2985H6.43019ZM12.8492 19.0365C12.8492 18.2043 12.6148 17.6139 12.1489 17.2551C11.6823 16.9016 11.0604 16.726 10.2952 16.726H6.43019V21.1721H10.2244C10.5749 21.1721 10.9081 21.1413 11.221 21.0705C11.5391 21.0011 11.821 20.891 12.0585 20.7273C12.2968 20.5721 12.4934 20.3565 12.6367 20.0836C12.7799 19.813 12.8492 19.4616 12.8492 19.0365ZM29.1046 18.8488H20.6683C20.6683 19.7731 20.9804 20.6491 21.4636 21.1178C21.9439 21.5875 22.6396 21.8243 23.5397 21.8243C24.1881 21.8243 24.7474 21.6606 25.2171 21.3335C25.6821 21.0079 25.9657 20.6595 26.075 20.2977H28.9027C28.4482 21.7052 27.7591 22.7093 26.8182 23.3146C25.888 23.9214 24.7543 24.2245 23.4327 24.2245C22.5115 24.2245 21.683 24.0761 20.939 23.7812C20.1949 23.4842 19.5738 23.0673 19.0513 22.5253C18.5418 21.9787 18.1459 21.3335 17.864 20.5765C17.5851 19.822 17.4441 18.989 17.4441 18.0851C17.4441 17.2107 17.5903 16.3941 17.8761 15.6381C18.167 14.8813 18.5703 14.2277 19.1004 13.6789C19.631 13.1285 20.2612 12.6935 20.9947 12.3762C21.7283 12.0588 22.5372 11.8998 23.4328 11.8998C24.4218 11.8998 25.288 12.0904 26.0305 12.478C26.7708 12.8601 27.3777 13.3788 27.8541 14.0279C28.3306 14.6754 28.6698 15.4158 28.8816 16.2465C29.0918 17.075 29.1649 17.9418 29.1046 18.8488ZM25.8932 16.8247C25.8163 16.0076 25.5359 15.4015 25.1529 14.9762C24.7714 14.5533 24.1246 14.325 23.3361 14.325C22.8227 14.325 22.3983 14.4109 22.0584 14.5872C21.726 14.7606 21.4538 14.9769 21.2458 15.2311C21.0384 15.4897 20.8967 15.7633 20.8145 16.055C20.7324 16.3393 20.6834 16.5978 20.6683 16.8247H25.8932Z" fill="#070D18"/>
</svg>
