<svg width="32" height="32" viewBox="0 0 32 32" fill="none" xmlns="http://www.w3.org/2000/svg">
<path d="M30 10.8L26.6667 12.6334L23.3333 15.8V26.6667H28C29.1047 26.6667 30 25.7714 30 24.6667V10.8Z" fill="#4CAF50"/>
<path d="M2 10.8L4.40933 11.94L8.66667 15.8V26.6667H4C2.89533 26.6667 2 25.7714 2 24.6667V10.8Z" fill="#1E88E5"/>
<path d="M23.3333 7.4668L16 12.9668L8.66667 7.4668L8 11.3335L8.66667 15.8001L16 21.3001L23.3333 15.8001L24 11.3335L23.3333 7.4668Z" fill="#E53935"/>
<path d="M2 8.19859V10.7999L8.66667 15.7999V7.46659L6.584 5.90592C6.088 5.53392 5.48533 5.33325 4.86533 5.33325C3.28267 5.33325 2 6.61592 2 8.19859Z" fill="#C62828"/>
<path d="M30 8.19859V10.7999L23.3333 15.7999V7.46659L25.416 5.90592C25.912 5.53392 26.5147 5.33325 27.1347 5.33325C28.7173 5.33325 30 6.61592 30 8.19859Z" fill="#FBC02D"/>
</svg>
