<svg width="32" height="32" viewBox="0 0 32 32" fill="none" xmlns="http://www.w3.org/2000/svg">
<path d="M9.35266 11.5H4V28H9.35266V11.5Z" fill="#0274B3"/>
<path d="M23.9321 11.6935C23.8751 11.6757 23.8213 11.6562 23.7615 11.6394C23.6895 11.623 23.6179 11.6093 23.5445 11.5976C23.2605 11.5405 22.949 11.5 22.5841 11.5C19.4638 11.5 17.4842 13.7757 16.8325 14.6545V11.5H11.4799V28H16.8324V19.0001C16.8324 19.0001 20.8772 13.351 22.5841 17.4999V28H27.9352V16.8655C27.9352 14.3724 26.2312 12.2949 23.9321 11.6935Z" fill="#0274B3"/>
<path d="M6.61802 9.24999C8.06365 9.24999 9.23589 8.07493 9.23589 6.62497C9.23589 5.17532 8.0636 4 6.61802 4C5.17229 4 4 5.17527 4 6.62497C4 8.07488 5.17229 9.24999 6.61802 9.24999Z" fill="#0274B3"/>
</svg>
