<svg width="32" height="32" viewBox="0 0 32 32" fill="none" xmlns="http://www.w3.org/2000/svg">
<g clip-path="url(#clip0)">
<path d="M17.7158 15.9816C17.7158 20.5319 14.052 24.2207 9.53282 24.2207C5.01362 24.2207 1.34961 20.5319 1.34961 15.9816C1.34961 11.4312 5.01335 7.74219 9.53282 7.74219C14.0523 7.74219 17.7158 11.4312 17.7158 15.9816Z" fill="black"/>
<path d="M26.693 15.9833C26.693 20.2665 24.8611 23.74 22.6014 23.74C20.3416 23.74 18.5098 20.2665 18.5098 15.9833C18.5098 11.7001 20.3414 8.22656 22.6011 8.22656C24.8608 8.22656 26.6927 11.699 26.6927 15.9833" fill="black"/>
<path d="M30.3641 15.9879C30.3641 19.8245 29.72 22.9367 28.9251 22.9367C28.1303 22.9367 27.4864 19.8254 27.4864 15.9879C27.4864 12.1504 28.1305 9.03906 28.9251 9.03906C29.7197 9.03906 30.3641 12.1501 30.3641 15.9879Z" fill="black"/>
</g>
<defs>
<clipPath id="clip0">
<rect width="32" height="32" fill="white"/>
</clipPath>
</defs>
</svg>
