<svg width="32" height="32" viewBox="0 0 32 32" fill="none" xmlns="http://www.w3.org/2000/svg">
<path d="M30.5311 6.84031C29.4446 7.32308 28.2778 7.64892 27.0511 7.79385C28.3018 7.04431 29.2628 5.85723 29.716 4.44308C28.5446 5.13631 27.2486 5.64215 25.8686 5.91262C24.7628 4.73569 23.188 4 21.4443 4C18.0982 4 15.3871 6.712 15.3871 10.0582C15.3871 10.5326 15.4397 10.996 15.5431 11.4391C10.5077 11.1862 6.04369 8.77415 3.05477 5.10862C2.53415 6.004 2.23508 7.04431 2.23508 8.15477C2.23508 10.2575 3.30492 12.1111 4.92954 13.1985C3.93723 13.1662 3.00308 12.8948 2.18615 12.4406C2.18523 12.4655 2.18523 12.4923 2.18523 12.5163C2.18523 15.4526 4.27323 17.9015 7.04523 18.4582C6.53754 18.5957 6.00215 18.6705 5.44923 18.6705C5.05785 18.6705 4.67938 18.6326 4.31015 18.5625C5.08 20.968 7.31846 22.72 9.96862 22.7698C7.89631 24.3945 5.284 25.3646 2.44554 25.3646C1.95631 25.3646 1.47354 25.336 1 25.2797C3.68062 26.9966 6.86523 28 10.2871 28C21.4305 28 27.5255 18.7683 27.5255 10.7615C27.5255 10.4994 27.5182 10.2372 27.5071 9.97692C28.6914 9.12308 29.7178 8.05692 30.5311 6.84031Z" fill="#55ACEE"/>
</svg>
