<svg width="173" height="28" viewBox="0 0 173 28" fill="none" xmlns="http://www.w3.org/2000/svg">
<path d="M2.80005 3.84999C2.80005 3.27009 3.27015 2.79999 3.85005 2.79999H24.1501C24.73 2.79999 25.2001 3.27009 25.2001 3.84999V5.94999C25.2001 6.5299 24.73 6.99999 24.1501 6.99999H2.80005V3.84999Z" fill="#86868B"/>
<path d="M2.80005 7H7.00005V24.15C7.00005 24.7299 6.52996 25.2 5.95005 25.2H3.85005C3.27015 25.2 2.80005 24.7299 2.80005 24.15V7Z" fill="#86868B"/>
<path d="M14 7H18.2V24.15C18.2 24.7299 17.7299 25.2 17.15 25.2H15.05C14.4701 25.2 14 24.7299 14 24.15V7Z" fill="#86868B"/>
<path d="M14 14H7V18.2H14V14Z" fill="#86868B"/>
<path d="M24.15 21H22.05C21.4701 21 21 21.4701 21 22.05V24.15C21 24.7299 21.4701 25.2 22.05 25.2H24.15C24.7299 25.2 25.2 24.7299 25.2 24.15V22.05C25.2 21.4701 24.7299 21 24.15 21Z" fill="#86868B"/>
<path d="M40.3154 20H42.2842V9.01367H46.1602V7.31738H36.4307V9.01367H40.3154V20ZM49.4251 20.1846C52.0706 20.1846 53.8109 18.3564 53.8109 15.377V15.3594C53.8109 12.3975 52.053 10.5781 49.4163 10.5781C46.7884 10.5781 45.0394 12.4062 45.0394 15.3594V15.377C45.0394 18.3477 46.7708 20.1846 49.4251 20.1846ZM49.4339 18.5938C47.9486 18.5938 46.9818 17.4248 46.9818 15.377V15.3594C46.9818 13.3379 47.9573 12.1689 49.4163 12.1689C50.9017 12.1689 51.8685 13.3379 51.8685 15.3594V15.377C51.8685 17.416 50.9193 18.5938 49.4339 18.5938ZM56.0123 20H57.9196V12.2656H59.7653V10.7539H57.8844V9.80469C57.8844 8.9873 58.2887 8.57422 59.1413 8.57422C59.3786 8.57422 59.6159 8.5918 59.8004 8.61816V7.21191C59.5455 7.16797 59.1237 7.13281 58.737 7.13281C56.8561 7.13281 56.0123 7.97656 56.0123 9.76953V10.7539H54.7379V12.2656H56.0123V20ZM64.5859 20.1846C65.9921 20.1846 66.9326 19.543 67.416 18.6113H67.4599V20H69.3671V10.7539H67.4599V16.1504C67.4599 17.5918 66.5986 18.5498 65.2627 18.5498C63.9443 18.5498 63.2939 17.7764 63.2939 16.3789V10.7539H61.3955V16.748C61.3955 18.875 62.5556 20.1846 64.5859 20.1846ZM71.428 20H73.3264V14.6123C73.3264 13.1709 74.1878 12.2041 75.5237 12.2041C76.8421 12.2041 77.4925 12.9863 77.4925 14.375V20H79.3997V14.0146C79.3997 11.8877 78.2307 10.5781 76.2005 10.5781C74.803 10.5781 73.8538 11.2109 73.3704 12.1514H73.3264V10.7539H71.428V20ZM81.4166 20H83.315V14.2871C83.315 13.0918 84.1148 12.2041 85.2398 12.2041C86.3121 12.2041 86.9889 12.8896 86.9889 13.9619V20H88.8521V14.2168C88.8521 13.0479 89.6344 12.2041 90.7594 12.2041C91.8844 12.2041 92.526 12.8984 92.526 14.1025V20H94.4332V13.6455C94.4332 11.791 93.2379 10.5781 91.4098 10.5781C90.0914 10.5781 89.0016 11.2725 88.527 12.3975H88.483C88.1139 11.2373 87.1822 10.5781 85.9078 10.5781C84.6949 10.5781 83.7545 11.2197 83.359 12.1865H83.315V10.7539H81.4166V20ZM97.4784 9.33008C98.1025 9.33008 98.5859 8.83789 98.5859 8.24023C98.5859 7.63379 98.1025 7.1416 97.4784 7.1416C96.8632 7.1416 96.371 7.63379 96.371 8.24023C96.371 8.83789 96.8632 9.33008 97.4784 9.33008ZM96.5292 20H98.4277V10.7539H96.5292V20ZM103.692 20H105.757L106.926 16.5723H111.813L112.973 20H115.039L110.433 7.31738H108.306L103.692 20ZM109.352 9.41797H109.387L111.277 14.9902H107.454L109.352 9.41797ZM119.604 20.1846C120.932 20.1846 121.951 19.5166 122.505 18.4355H122.54V20H124.447V7.31738H122.54V12.3271H122.505C121.951 11.2373 120.896 10.5781 119.587 10.5781C117.266 10.5781 115.737 12.4238 115.737 15.3682V15.377C115.737 18.3213 117.249 20.1846 119.604 20.1846ZM120.105 18.5498C118.602 18.5498 117.68 17.3457 117.68 15.377V15.3682C117.68 13.417 118.611 12.2041 120.105 12.2041C121.529 12.2041 122.549 13.4521 122.549 15.3682V15.377C122.549 17.3018 121.538 18.5498 120.105 18.5498ZM130.525 20.1846C132.766 20.1846 134.19 18.8486 134.488 17.3809L134.506 17.2842H132.704L132.678 17.3545C132.441 18.0488 131.694 18.6289 130.569 18.6289C129.057 18.6289 128.099 17.6094 128.064 15.8604H134.612V15.2188C134.612 12.4414 133.021 10.5781 130.428 10.5781C127.835 10.5781 126.165 12.5117 126.165 15.4033V15.4121C126.165 18.3301 127.809 20.1846 130.525 20.1846ZM130.437 12.1338C131.676 12.1338 132.572 12.916 132.731 14.5156H128.09C128.257 12.9688 129.206 12.1338 130.437 12.1338ZM138.07 20H140.03L141.955 13.0742H141.999L143.941 20H145.918L148.45 10.7539H146.569L144.881 18.0312H144.837L142.904 10.7539H141.076L139.151 18.0312H139.116L137.428 10.7539H135.53L138.07 20ZM152.936 20.1846C154.343 20.1846 155.283 19.543 155.766 18.6113H155.81V20H157.718V10.7539H155.81V16.1504C155.81 17.5918 154.949 18.5498 153.613 18.5498C152.295 18.5498 151.644 17.7764 151.644 16.3789V10.7539H149.746V16.748C149.746 18.875 150.906 20.1846 152.936 20.1846ZM160.868 23.085C162.679 23.085 163.646 22.3467 164.331 20.4307L167.777 10.7539H165.773L163.444 18.2773H163.382L161.053 10.7539H158.996L162.362 20.0088L162.204 20.4482C161.888 21.3447 161.396 21.582 160.499 21.582C160.244 21.582 160.025 21.5469 159.875 21.5117V22.9971C160.104 23.041 160.499 23.085 160.868 23.085ZM170.092 9.33008C170.716 9.33008 171.2 8.83789 171.2 8.24023C171.2 7.63379 170.716 7.1416 170.092 7.1416C169.477 7.1416 168.985 7.63379 168.985 8.24023C168.985 8.83789 169.477 9.33008 170.092 9.33008ZM169.143 20H171.041V10.7539H169.143V20Z" fill="#86868B"/>
</svg>
