<svg width="28" height="28" viewBox="0 0 28 28" fill="none" xmlns="http://www.w3.org/2000/svg">
<path d="M2.80005 3.84999C2.80005 3.27009 3.27015 2.79999 3.85005 2.79999H24.1501C24.73 2.79999 25.2001 3.27009 25.2001 3.84999V5.94999C25.2001 6.5299 24.73 6.99999 24.1501 6.99999H2.80005V3.84999Z" fill="#86868B"/>
<path d="M2.80005 7H7.00005V24.15C7.00005 24.7299 6.52996 25.2 5.95005 25.2H3.85005C3.27015 25.2 2.80005 24.7299 2.80005 24.15V7Z" fill="#86868B"/>
<path d="M14 7H18.2V24.15C18.2 24.7299 17.7299 25.2 17.15 25.2H15.05C14.4701 25.2 14 24.7299 14 24.15V7Z" fill="#86868B"/>
<path d="M14 14H7V18.2H14V14Z" fill="#86868B"/>
<path d="M24.15 21H22.05C21.4701 21 21 21.4701 21 22.05V24.15C21 24.7299 21.4701 25.2 22.05 25.2H24.15C24.7299 25.2 25.2 24.7299 25.2 24.15V22.05C25.2 21.4701 24.7299 21 24.15 21Z" fill="#86868B"/>
</svg>
